HIERARCHY
ROOT Hips
{
	OFFSET 0.00000 0.00000 0.00000
	CHANNELS 6 Xposition Yposition Zposition Zrotation Yrotation Xrotation 
	JOINT LHipJoint
	{
		OFFSET 0 0 0
		CHANNELS 3 Zrotation Yrotation Xrotation
		JOINT LeftHip
		{
			OFFSET 1.57358 -1.76629 0.73362
			CHANNELS 3 Zrotation Yrotation Xrotation
			JOINT LeftKnee
			{
				OFFSET 2.40600 -6.61045 0.00000
				CHANNELS 3 Zrotation Yrotation Xrotation
				JOINT LeftAnkle
				{
					OFFSET 2.66168 -7.31291 0.00000
					CHANNELS 3 Zrotation Yrotation Xrotation
					JOINT LeftToe
					{
						OFFSET 0.20870 -0.57341 2.12506
						CHANNELS 3 Zrotation Yrotation Xrotation
						End Site
						{
							OFFSET 0.00000 -0.00000 1.10557
						}
					}
				}
			}
		}
	}
	JOINT RHipJoint
	{
		OFFSET 0 0 0
		CHANNELS 3 Zrotation Yrotation Xrotation
		JOINT RightHip
		{
			OFFSET -1.49299 -1.76629 0.73362
			CHANNELS 3 Zrotation Yrotation Xrotation
			JOINT RightKnee
			{
				OFFSET -2.43663 -6.69460 0.00000
				CHANNELS 3 Zrotation Yrotation Xrotation
				JOINT RightAnkle
				{
					OFFSET -2.62959 -7.22474 0.00000
					CHANNELS 3 Zrotation Yrotation Xrotation
					JOINT RightToe
					{
						OFFSET -0.25784 -0.70841 2.21862
						CHANNELS 3 Zrotation Yrotation Xrotation
						End Site
						{
							OFFSET -0.00000 -0.00000 1.16452
						}
					}
				}
			}
		}
	}
	JOINT lowerback
	{
		OFFSET 0 0 0
		CHANNELS 3 Zrotation Yrotation Xrotation
		JOINT Chest
		{
			OFFSET -0.00034 2.12399 -0.25450
			CHANNELS 3 Zrotation Yrotation Xrotation
			JOINT Chest2
			{
				OFFSET 0.05594 2.14379 -0.03318
				CHANNELS 3 Zrotation Yrotation Xrotation
				JOINT lowerneck
				{
					OFFSET 0 0 0
					CHANNELS 3 Zrotation Yrotation Xrotation
					JOINT Neck
					{
						OFFSET -0.09835 1.62725 0.24211
						CHANNELS 3 Zrotation Yrotation Xrotation
						JOINT Head
						{
							OFFSET 0.10849 1.66041 -0.22648
							CHANNELS 3 Zrotation Yrotation Xrotation
							End Site
							{
								OFFSET 0.04385 1.68267 -0.10541
							}
						}
					}
				}
				JOINT LeftCollar
				{
					OFFSET 0 0 0
					CHANNELS 3 Zrotation Yrotation Xrotation
					JOINT LeftShoulder
					{
						OFFSET 3.29108 0.79398 -0.68179
CHANNELS 3 Zrotation Xrotation Yrotation
						JOINT LeftElbow
						{
OFFSET 0 -5.153100 -0.000000
CHANNELS 3 Zrotation Xrotation Yrotation
							JOINT LeftWrist
							{
OFFSET 0 -3.751380 -0.000000
CHANNELS 3 Zrotation Xrotation Yrotation
								JOINT lhand
								{
									OFFSET 0 0 0
CHANNELS 3 Zrotation Xrotation Yrotation
									JOINT LFingers
									{
OFFSET 0 -0.529170 0.000000
CHANNELS 3 Zrotation Xrotation Yrotation
										End Site
										{
OFFSET 0 -0.426630 0.000000
										}
									}
								}
								JOINT LThumb
								{
OFFSET 0 0.000000 0.000000
CHANNELS 3 Zrotation Xrotation Yrotation
									End Site
									{
OFFSET 0 -0.433150 0.433150
									}
								}
							}
						}
					}
				}
				JOINT RightCollar
				{
					OFFSET 0 0 0
					CHANNELS 3 Zrotation Yrotation Xrotation
					JOINT RightShoulder
					{
						OFFSET -3.07414 1.06285 -0.44338
CHANNELS 3 Zrotation Xrotation Yrotation
						JOINT RightElbow
						{
OFFSET 0 -5.296130 0.000000
CHANNELS 3 Zrotation Xrotation Yrotation
							JOINT RightWrist
							{
OFFSET 0 -3.761440 -0.000000
CHANNELS 3 Zrotation Xrotation Yrotation
								JOINT rhand
								{
									OFFSET 0 0 0
CHANNELS 3 Zrotation Xrotation Yrotation
									JOINT RFingers
									{
OFFSET 0 -0.747320 0.000000
CHANNELS 3 Zrotation Xrotation Yrotation
										End Site
										{
OFFSET 0 -0.602510 0.000000
										}
									}
								}
								JOINT RThumb
								{
OFFSET 0 0.000000 0.000000
CHANNELS 3 Zrotation Xrotation Yrotation
									End Site
									{
OFFSET 0 -0.611710 0.611710
									}
								}
							}
						}
					}
				}
			}
		}
	}
}
MOTION
Frames: 7
Frame Time: 0.008333333333333333
9.297400 17.358600 -29.821100 4.861300 3.668500 1.161400 0.000000 0.000000 0.000000 -28.843000 0.585700 9.660100 1.403400 7.493500 21.186000 0.254300 -9.529300 -10.457000 0.477300 -4.430700 -12.291500 0.000000 0.000000 0.000000 14.817900 8.316800 -24.643600 -0.672600 -5.244500 14.607400 -0.037300 -1.498900 -4.523300 -0.233200 3.108300 -8.580400 -5.752300 -1.617000 6.087500 1.463800 -2.488600 1.018900 4.939000 -1.202900 -2.047100 -8.053800 -4.373700 -17.276700 4.222300 -4.835600 19.653300 2.147100 -2.400000 9.354300 0.000000 -0.000000 0.000000 5.759100 -6.308200 -21.550900 18.132300 -28.326300 4.611900 21.821400 14.160400 -19.147500 0.000000 0.000000 0.000000 -7.125000 0.000000 0.000000 -6.434900 50.376100 0.855700 0.000000 -0.000000 0.000000 -1.065800 3.501300 0.632800 -13.362500 -21.816000 -2.586400 -13.391600 8.357600 -12.289200 0.000000 0.000000 0.000000 7.125000 0.000000 -0.000000 9.611300 17.464600 6.374500
9.289487 17.345658 -29.690936 5.016461 3.313878 0.821939 0.000000 0.000000 0.000000 -29.041056 0.870655 9.953116 1.497547 7.728460 21.893025 0.221463 -9.357129 -9.948844 0.542234 -4.714619 -13.096961 0.000000 0.000000 0.000000 14.874773 8.487714 -24.407678 -0.785088 -5.650891 15.776284 -0.052313 -0.273513 -4.489428 -0.251985 3.228923 -8.916903 -6.103224 -1.752858 6.468303 1.685596 -2.718013 0.701035 5.412322 -1.288024 -2.533365 -8.780867 -3.989791 -15.997103 4.389368 -4.254671 19.158013 2.414305 -2.176651 8.933191 0.000000 0.000000 0.000000 5.182534 -5.221260 -20.655581 18.164027 -28.366680 4.626913 20.633731 14.770912 -22.113529 0.000000 0.000000 0.000000 -7.125000 0.000000 0.000000 -8.633482 53.232378 1.813216 0.000000 0.000000 0.000000 -1.738065 4.415256 1.746808 -13.375812 -21.835303 -2.591355 -13.284289 8.352645 -11.088811 0.000000 0.000000 0.000000 7.125000 0.000000 0.000000 9.714469 18.683553 6.178367
9.278603 17.341531 -29.555742 5.030278 3.153257 0.590427 0.000000 0.000000 0.000000 -29.020196 1.012349 10.149539 1.592987 7.959395 22.591713 0.163137 -9.411013 -9.159151 0.609468 -4.993125 -13.889773 0.000000 0.000000 0.000000 15.046110 8.627005 -24.022459 -0.856371 -5.900319 16.495838 -0.051036 0.839230 -4.116235 -0.230954 3.086695 -8.520764 -6.230633 -1.832275 6.723764 1.826370 -2.846713 0.590154 5.656715 -1.339465 -2.761233 -9.126785 -3.843867 -15.647166 4.390608 -3.989969 18.986954 2.509885 -2.081135 8.801238 0.000000 0.000000 0.000000 4.853057 -4.791306 -20.019138 18.036491 -28.203477 4.566655 17.151164 15.142337 -30.118349 0.000000 0.000000 0.000000 -7.125000 0.000000 0.000000 -18.111754 60.122035 8.199919 0.000000 0.000000 0.000000 -2.089313 4.748024 2.108723 -13.282182 -21.699079 -2.556782 -13.072288 8.546913 -10.480197 0.000000 0.000000 0.000000 7.125000 0.000000 0.000000 9.879399 19.309579 6.147678
9.265667 17.346636 -29.415298 4.968492 3.202448 0.433818 0.000000 0.000000 0.000000 -28.870109 0.988782 10.282349 1.696523 8.201418 23.328516 0.088003 -9.636670 -8.174742 0.684512 -5.286183 -14.727498 0.000000 0.000000 0.000000 15.239206 8.738566 -23.578178 -0.904687 -6.060733 16.960944 -0.036049 1.808536 -3.414699 -0.167374 2.562686 -7.067001 -6.234822 -1.901526 6.862655 1.909328 -2.945273 0.592306 5.760686 -1.386157 -2.818098 -9.236769 -3.826186 -15.801411 4.315009 -3.907039 19.047461 2.511238 -2.057114 8.845419 0.000000 0.000000 0.000000 4.679121 -4.700088 -19.579153 17.869363 -27.989583 4.487746 15.137030 15.755722 -35.724855 0.000000 0.000000 0.000000 -7.125000 0.000000 0.000000 -24.296397 65.040703 12.546382 0.000000 0.000000 0.000000 -2.213997 4.771250 1.941573 -13.118154 -21.459926 -2.496480 -12.899171 8.799694 -10.617913 0.000000 0.000000 0.000000 7.125000 0.000000 0.000000 9.997964 19.180057 6.252669
9.251689 17.362315 -29.268864 4.909622 3.500197 0.315857 0.000000 0.000000 0.000000 -28.695646 0.757076 10.388698 1.817664 8.475058 24.166888 0.005837 -9.978793 -7.091056 0.775183 -5.620910 -15.688564 0.000000 0.000000 0.000000 15.335941 8.825021 -23.186504 -0.951650 -6.212344 17.401725 -0.009498 2.582048 -2.370432 -0.053998 1.469682 -4.042768 -6.234896 -2.019635 6.886173 1.959470 -3.102431 0.595708 5.826581 -1.465143 -2.802197 -9.278259 -3.805848 -15.952948 4.271079 -3.847651 19.239749 2.510350 -2.037885 8.934758 0.000000 0.000000 0.000000 4.555762 -4.565117 -19.271937 17.814118 -27.918511 4.461861 19.591139 17.254896 -29.096273 0.000000 0.000000 0.000000 -7.125000 0.000000 0.000000 -13.212597 60.043603 5.005176 0.000000 0.000000 0.000000 -2.214662 4.809634 1.487997 -12.924906 -21.176968 -2.426073 -12.954195 8.933925 -11.767050 0.000000 0.000000 0.000000 7.125000 0.000000 0.000000 9.926153 18.018643 6.466626
9.244829 17.377017 -29.128222 4.832051 3.695784 0.186522 0.000000 0.000000 0.000000 -28.554468 0.546095 10.364903 1.966718 8.793567 25.153688 -0.045624 -9.962162 -6.174012 0.903607 -6.051171 -16.934903 0.000000 0.000000 0.000000 15.420673 8.931155 -22.870265 -0.983539 -6.312385 17.693659 0.015656 3.026324 -0.958827 -0.022408 -0.057233 0.156471 -6.094776 -2.119390 6.908086 1.971511 -3.227070 0.520883 5.773008 -1.523752 -2.881550 -9.410885 -3.693745 -15.693254 4.424146 -3.722459 19.373069 2.604786 -1.978043 8.929402 0.000000 0.000000 0.000000 4.475737 -4.178369 -19.580696 17.737309 -27.819456 4.425997 16.956207 16.027161 -35.656394 0.000000 0.000000 0.000000 -7.125000 0.000000 0.000000 -22.493002 65.453588 11.969686 0.000000 0.000000 0.000000 -2.208350 5.045782 1.168544 -12.750359 -20.920109 -2.363552 -13.377533 8.855527 -12.944799 0.000000 0.000000 0.000000 7.125000 0.000000 0.000000 9.613310 16.802169 6.513173
9.241456 17.391835 -28.992300 4.586845 3.769307 0.083274 0.000000 0.000000 0.000000 -28.281920 0.305037 10.195937 2.136118 9.139780 26.236757 -0.086283 -9.667935 -5.123250 1.003626 -6.372460 -17.869775 0.000000 0.000000 0.000000 15.718750 9.028581 -22.610675 -1.014439 -6.407724 17.972317 0.027999 3.173206 0.081485 -0.015743 -0.800480 2.200079 -5.715195 -2.182838 6.930166 2.006205 -3.283892 0.426902 5.603335 -1.549781 -3.002729 -9.491750 -3.607778 -15.387795 4.490888 -3.631297 19.458642 2.656416 -1.939347 8.899181 0.000000 0.000000 0.000000 4.409896 -3.878564 -19.165620 17.718697 -27.795490 4.417311 14.619209 16.005295 -36.640025 0.000000 0.000000 0.000000 -7.125000 0.000000 0.000000 -25.592771 65.834547 13.313480 0.000000 0.000000 0.000000 -2.175770 5.227537 0.752706 -12.577281 -20.664461 -2.302159 -13.693387 9.137818 -13.233021 0.000000 0.000000 0.000000 7.125000 0.000000 0.000000 9.389715 16.490174 6.426406
